<svg xmlns="http://www.w3.org/2000/svg" viewBox="0 0 351 405.3"><defs><style>.a{fill:#b56c94;}.b{fill:#333;}.c{fill:#d6a2e8;}</style></defs><polygon class="a" points="46.5 211.02 121.25 167.86 121.25 67.07 144.75 53.51 144.75 181.28 46.5 238.01 46.5 211.02"/><path class="a" d="M143.75,55.24V180.71l-.12.07L47.5,236.28V211.6l74.75-43.16V67.65l21.5-12.41m2-3.46-3,1.73-21.5,12.41-1,.58V167.29L46.5,209.87l-1,.58v29.29l3-1.73,96.13-55.5.13-.07,1-.58V51.78Z"/><polygon class="b" points="335.5 110.49 335.5 295.81 335.33 295.91 175 388.48 14.5 295.81 14.82 295.63 14.93 295.69 175.43 203.03 175.43 18.07 335.5 110.49"/><polygon class="c" points="196.25 202.35 195.5 53.9 314.5 122.61 314.55 270.66 196.25 202.35"/><path class="c" d="M196,54.77,314,122.9l.05,146.89-117.3-67.73L196,54.77M195,53v1.74l.75,147.29v.58l.5.29,117.3,67.73,1.5.86v-1.73L315,122.9v-.58l-.5-.29L196.5,53.9,195,53Z"/><path class="b" d="M175.5,4.62l171.5,99v198l-171.5,99L4,301.67v-198l171.5-99m0-4.62-2,1.15L2,100.17l-2,1.15V304l2,1.16,171.5,99,2,1.15,2-1.15,171.5-99,2-1.16V101.33l-2-1.16-171.5-99L175.5,0Z"/></svg>