<svg xmlns="http://www.w3.org/2000/svg" viewBox="0 0 406.72 469.64"><defs><style>.a{fill:#b56c94;}.b{fill:#333;}.c{fill:#d6a2e8;}</style></defs><polygon class="a" points="74.36 243.19 149.11 200.03 149.11 99.24 172.61 85.68 172.61 213.46 74.36 270.18 74.36 243.19"/><path class="a" d="M171.61,87.41V212.88l-.12.07-96.13,55.5V243.77l74.75-43.16V99.82l21.5-12.41m2-3.46-3,1.73-21.5,12.41-1,.58V199.46L74.36,242l-1,.58v29.29l3-1.73,96.13-55.5.13-.07,1-.58V84Z"/><polygon class="b" points="363.36 142.66 363.36 327.98 363.19 328.08 202.86 420.65 42.36 327.98 42.68 327.8 42.79 327.86 203.29 235.2 203.29 50.24 363.36 142.66"/><polygon class="c" points="224.11 234.52 223.36 86.07 342.36 154.78 342.41 302.83 224.11 234.52"/><path class="c" d="M223.86,86.94l118,68.13L341.91,302l-117.3-67.73-.75-147.29m-1-1.74V87l.75,147.29v.57l.5.29,117.3,67.73,1.5.86V302l-.05-146.89v-.58l-.5-.29-118-68.13-1.51-.87Z"/><path class="b" d="M203.36,17.32,391.72,126.07v217.5L203.36,452.32,15,343.57V126.07L203.36,17.32m0-17.32-7.5,4.33L7.5,113.08,0,117.41V352.23l7.5,4.33L195.86,465.31l7.5,4.33,7.5-4.33L399.22,356.56l7.5-4.33V117.41l-7.5-4.33L210.86,4.33,203.36,0Z"/></svg>