<svg xmlns="http://www.w3.org/2000/svg" viewBox="0 0 321 370.41"><defs><style>.a{fill:#b56c94;}.b{fill:#333;}.c{fill:#d6a2e8;}</style></defs><polygon class="a" points="32 192.95 106.75 149.79 106.75 49 130.25 35.44 130.25 163.22 32 219.94 32 192.95"/><path class="a" d="M129.25,37.17V162.64l-.12.07L33,218.21V193.53l74.75-43.16V49.58l21.5-12.41m2-3.46-3,1.73-21.5,12.41-1,.58V149.22L32,191.8l-1,.58v29.29l3-1.73,96.13-55.5.13-.07,1-.58V33.71Z"/><polygon class="b" points="321 92.42 321 277.74 320.83 277.84 160.5 370.41 0 277.74 0.32 277.56 0.43 277.62 160.93 184.96 160.93 0 321 92.42"/><polygon class="c" points="181.75 173.28 181 35.83 300 104.54 300.05 241.59 181.75 173.28"/><path class="c" d="M181.5,36.7l118,68.13.05,135.89L182.25,173,181.5,36.7m-1-1.74v1.75L181.25,173v.57l.5.29,117.3,67.73,1.5.86v-1.73l-.05-135.89v-.58L300,104,182,35.83,180.49,35Z"/></svg>